<?xml version="1.0" encoding="UTF-8"?>
<svg id="Layer_2" data-name="Layer 2" xmlns="http://www.w3.org/2000/svg" viewBox="0 0 507.35 507.4">
  <defs>
    <style>
      .cls-1 {
        fill: #fff;
      }
    </style>
  </defs>
  <g id="Layer_1-2" data-name="Layer 1">
    <path class="cls-1" d="M507.24,253.59l-34.73-34.74c-1.6,2.26-3.68,4.66-6.45,6.91-.91.74-1.83,1.41-2.77,2.01-9.69,6.33-20.29,6.22-24.36,5.97.52-.35,2.79-1.91,5.62-4.63.02-.03.05-.05.07-.07.25-.24.5-.49.75-.73.79-.78,1.54-1.59,2.26-2.43,6.64-7.68,10.64-17.52,10.64-28.25,0-12.92-5.78-24.54-15.01-32.66-.57-.5-1.15-.99-1.74-1.45-5.32-3.85-15.45-9.56-29.01-9.61-21.67-.07-35.15,14.32-37.31,16.69-2.8,4.06-5.1,7.77-6.96,10.95-.07.16-.14.32-.2.48-1.18,2.04-2.17,3.86-2.99,5.4-5.93,11.15-7.23,16.63-13.07,23.51-3.35,3.99-6.86,6.83-9.71,8.8.02-.06.03-.12.04-.18.31-1.2.46-2.45.46-3.75,0-8.6-6.98-15.58-15.58-15.58s-15.58,6.98-15.58,15.58c0,6.89,4.47,12.74,10.69,14.79.15.05.31.1.47.15,1.4.42,2.88.64,4.42.64h-51.08v-51.23c0,1.54.22,3.02.64,4.42,1.91,6.46,7.88,11.16,14.94,11.16,8.6,0,15.58-6.97,15.58-15.58s-6.98-15.58-15.58-15.58c-1.36,0-2.68.17-3.93.5,1.97-2.85,4.81-6.36,8.8-9.71,6.88-5.84,12.36-7.14,23.51-13.07,1.54-.82,3.36-1.81,5.4-2.99,16.84-6.63,28.83-23.67,28.83-43.64,0-12.19-4.46-23.28-11.77-31.58-.56-.7-1.03-1.26-1.39-1.67-1.93-2.05-13.59-13.99-31.97-13.74-22.21.32-34.49,18.15-35.56,19.74-.25-4.06-.36-14.61,5.91-24.27.62-.97,1.31-1.92,2.07-2.86,2.25-2.77,4.66-4.86,6.92-6.45L253.67,0l-.11.11-34.74,34.73c2.26,1.6,4.66,3.68,6.91,6.45.74.91,1.41,1.83,2.01,2.77,6.33,9.69,6.22,20.29,5.97,24.36-.35-.52-1.91-2.79-4.63-5.62-.03-.02-.05-.05-.07-.07-.24-.25-.49-.5-.73-.75-.78-.79-1.59-1.54-2.43-2.26-7.68-6.64-17.52-10.64-28.25-10.64-12.92,0-24.54,5.78-32.66,15.01-.5.57-.99,1.15-1.45,1.74-3.85,5.32-9.56,15.45-9.61,29.01-.07,21.67,14.32,35.15,16.69,37.31,4.06,2.8,7.77,5.1,10.95,6.96.16.07.32.14.48.2,2.04,1.18,3.86,2.17,5.4,2.99,11.15,5.93,16.63,7.23,23.51,13.07,3.99,3.35,6.83,6.86,8.8,9.71-.06-.02-.12-.03-.18-.04-1.2-.31-2.45-.46-3.75-.46-8.6,0-15.58,6.98-15.58,15.58s6.98,15.58,15.58,15.58c6.89,0,12.74-4.47,14.79-10.69.05-.15.1-.31.15-.47.42-1.4.64-2.88.64-4.42v51.1h-51.2c1.54,0,3.02-.22,4.42-.64,6.46-1.91,11.16-7.88,11.16-14.94,0-8.6-6.97-15.58-15.58-15.58s-15.58,6.98-15.58,15.58c0,1.36.17,2.68.5,3.93-2.85-1.97-6.36-4.81-9.71-8.8-5.84-6.88-7.14-12.36-13.07-23.51-.82-1.54-1.81-3.36-2.99-5.4-6.63-16.84-23.67-28.83-43.64-28.83-12.19,0-23.28,4.46-31.58,11.77-.7.56-1.26,1.03-1.67,1.39-2.05,1.93-13.99,13.59-13.74,31.97.32,22.21,18.15,34.49,19.74,35.56-4.06.25-14.61.36-24.27-5.91-.97-.62-1.92-1.31-2.86-2.07-2.77-2.25-4.86-4.66-6.45-6.92L0,253.7l.11.11,34.73,34.74c1.6-2.26,3.68-4.66,6.45-6.91.91-.74,1.83-1.41,2.77-2.01,9.69-6.33,20.29-6.22,24.36-5.97-.52.35-2.79,1.91-5.62,4.63-.02.03-.05.05-.07.07-.25.24-.5.49-.75.73-.79.78-1.54,1.59-2.26,2.43-6.64,7.68-10.64,17.52-10.64,28.25,0,12.92,5.78,24.54,15.01,32.66.57.5,1.15.99,1.74,1.45,5.32,3.85,15.45,9.56,29.01,9.61,21.67.07,35.15-14.32,37.31-16.69,2.8-4.06,5.1-7.77,6.96-10.95.07-.16.14-.32.2-.48,1.18-2.04,2.17-3.86,2.99-5.4,5.93-11.15,7.23-16.63,13.07-23.51,3.35-3.99,6.86-6.83,9.71-8.8-.02.06-.03.12-.04.18-.31,1.2-.46,2.45-.46,3.75,0,8.6,6.98,15.58,15.58,15.58s15.58-6.98,15.58-15.58c0-6.89-4.47-12.74-10.69-14.79-.15-.05-.31-.1-.47-.15-1.4-.42-2.88-.64-4.42-.64h51.07v51.23c0-1.54-.22-3.02-.64-4.42-1.91-6.46-7.88-11.16-14.94-11.16-8.6,0-15.58,6.97-15.58,15.58s6.98,15.58,15.58,15.58c1.36,0,2.68-.17,3.93-.5-1.97,2.85-4.81,6.36-8.8,9.71-6.88,5.84-12.36,7.14-23.51,13.07-1.54.82-3.36,1.81-5.4,2.99-16.84,6.63-28.83,23.67-28.83,43.64,0,12.19,4.46,23.28,11.77,31.58.56.7,1.03,1.26,1.39,1.67,1.93,2.05,13.59,13.99,31.97,13.74,22.21-.32,34.49-18.15,35.56-19.74.25,4.06.36,14.61-5.91,24.27-.62.97-1.31,1.92-2.07,2.86-2.25,2.77-4.66,4.86-6.92,6.45l34.84,34.84.11-.11,34.74-34.73c-2.26-1.6-4.66-3.68-6.91-6.45-.74-.91-1.41-1.83-2.01-2.77-6.33-9.69-6.22-20.29-5.97-24.36.35.52,1.91,2.79,4.63,5.62.03.02.05.05.07.07.24.25.49.5.73.75.78.79,1.59,1.54,2.43,2.26,7.68,6.64,17.52,10.64,28.25,10.64,12.92,0,24.54-5.78,32.66-15.01.5-.57.99-1.15,1.45-1.74,3.85-5.32,9.56-15.45,9.61-29.01.07-21.67-14.32-35.15-16.69-37.31-4.06-2.8-7.77-5.1-10.95-6.96-.16-.07-.32-.14-.48-.2-2.04-1.18-3.86-2.17-5.4-2.99-11.15-5.93-16.63-7.23-23.51-13.07-3.99-3.35-6.83-6.86-8.8-9.71.06.02.12.03.18.04,1.2.31,2.45.46,3.75.46,8.6,0,15.58-6.98,15.58-15.58s-6.98-15.58-15.58-15.58c-6.89,0-12.74,4.47-14.79,10.69-.05.15-.1.31-.15.47-.42,1.4-.64,2.88-.64,4.42v-51.1h51.21c-1.54,0-3.02.22-4.42.64-6.46,1.91-11.16,7.88-11.16,14.94,0,8.6,6.97,15.58,15.58,15.58s15.58-6.98,15.58-15.58c0-1.36-.17-2.68-.5-3.93,2.85,1.97,6.36,4.81,9.71,8.8,5.84,6.88,7.14,12.36,13.07,23.51.82,1.54,1.81,3.36,2.99,5.4,6.63,16.84,23.67,28.83,43.64,28.83,12.19,0,23.28-4.46,31.58-11.77.7-.56,1.26-1.03,1.67-1.39,2.05-1.93,13.99-13.59,13.74-31.97-.32-22.21-18.15-34.49-19.74-35.56,4.06-.25,14.61-.36,24.27,5.91.97.62,1.92,1.31,2.86,2.07,2.77,2.25,4.86,4.66,6.45,6.92l34.84-34.84-.11-.11ZM276.11,125.95s.05.06.07.09v-22.81c-.05-.58-.07-1.16-.07-1.75,0-13.44,10.9-24.34,24.34-24.34,5.87,0,11.27,2.08,15.47,5.56.03.02.06.05.09.08,2.94,2.44,5.29,5.56,6.82,9.13.01.03.02.06.04.1.96,2.5,1.32,4.65,1.49,5.74.72,4.59.07,8.76-1.13,12.29-.25.66-.52,1.31-.83,1.94-.01.03-.03.06-.05.1-.8,1.8-2.12,4.4-4.14,7.23-.01.01-.02.03-.03.04-3.4,4.76-6.86,7.48-9.26,9.46l-.02.02c-.47.45-.92.9-1.39,1.35-.06.07-.13.13-.19.19l-.57.57c-1.32,1.32-4,3.93-9.73,9.33h-.01c-.6.57-1.24,1.17-1.91,1.79-.67.64-1.38,1.3-2.12,2-2.47,2.31-5.37,5.01-8.64,8.05-.45.42-.91.84-1.38,1.28-.29.26-.57.52-.86.79-1.89,1.75-3.89,3.59-5.99,5.53v-33.76ZM231.23,381.45s-.05-.06-.07-.09v22.81c.05.58.07,1.16.07,1.75,0,13.44-10.9,24.34-24.34,24.34-5.87,0-11.27-2.08-15.47-5.56-.03-.02-.06-.05-.09-.08-2.94-2.44-5.29-5.56-6.82-9.13-.01-.03-.02-.06-.04-.1-.96-2.5-1.32-4.65-1.49-5.74-.72-4.59-.07-8.76,1.13-12.29.25-.66.52-1.31.83-1.94.01-.03.03-.06.05-.1.8-1.8,2.12-4.4,4.14-7.23.01,0,.02-.03.03-.04,3.4-4.76,6.86-7.48,9.26-9.46t.02-.02c.47-.45.92-.9,1.39-1.35.06-.07.13-.13.19-.19l.32-.32c.08-.08.16-.16.25-.25,1.32-1.32,4-3.93,9.73-9.33h.01c.6-.57,1.24-1.17,1.91-1.79.67-.64,1.38-1.3,2.12-2,2.47-2.31,5.37-5.01,8.64-8.05.45-.42.91-.84,1.38-1.28.29-.26.57-.52.86-.79,1.89-1.75,3.89-3.59,5.99-5.53v33.76ZM231.14,159.51v.07c-2.25-2.05-4.5-4.12-6.78-6.19-9.15-8.44-18.08-16.9-26.76-25.36,0,0,0,0-.02-.02-1.92-1.58-4.32-3.65-6.78-6.68l-.03-.03c-2.27-2.48-9.68-11.58-7.81-23.55.36-2.32,1.59-9.53,7.73-14.5.57-.46,1.16-.89,1.77-1.27,4.06-3.04,9.11-4.84,14.56-4.84,13.44,0,24.34,10.9,24.34,24.34,0,.59-.02,1.17-.07,1.75v22.81s.04-.06.07-.09v33.76c-.07-.07-.15-.14-.22-.2ZM82.7,191.45s.05-.06.08-.09c2.44-2.94,5.56-5.29,9.13-6.82.03-.01.06-.02.1-.04,2.5-.96,4.65-1.32,5.74-1.49,4.59-.72,8.76-.07,12.29,1.13.66.25,1.31.52,1.94.83.03.01.06.03.1.05,1.8.8,4.4,2.12,7.23,4.14.01.01.03.02.04.03,4.76,3.4,7.48,6.86,9.46,9.26t.02.02c.45.47.9.92,1.35,1.39.07.06.13.13.19.19l.57.57c1.32,1.32,3.93,4,9.33,9.73h0c.57.61,1.17,1.25,1.79,1.92.64.67,1.3,1.38,2,2.12,2.31,2.47,5.01,5.37,8.05,8.64.42.45.84.91,1.28,1.38.26.29.52.57.79.86,1.75,1.89,3.59,3.89,5.53,5.99h-33.76s.06-.05.09-.07h-22.81c-.58.05-1.16.07-1.75.07-13.44,0-24.34-10.9-24.34-24.34,0-5.87,2.08-11.27,5.56-15.47ZM159.58,276.23c-2.05,2.25-4.12,4.5-6.19,6.78-8.44,9.15-16.9,18.08-25.36,26.76,0,0,0,0-.02.02-1.58,1.92-3.65,4.32-6.68,6.78l-.03.03c-2.48,2.27-11.58,9.68-23.55,7.81-2.32-.36-9.53-1.59-14.5-7.73-.46-.57-.89-1.16-1.27-1.77-3.04-4.06-4.84-9.11-4.84-14.56,0-13.44,10.9-24.34,24.34-24.34.59,0,1.17.02,1.75.07h22.81s-.06-.04-.09-.07h33.76c-.07.07-.14.15-.2.22h.07ZM276.2,347.89v-.07c2.25,2.05,4.5,4.12,6.78,6.19,9.15,8.44,18.08,16.9,26.76,25.36,0,.01.01.01.02.02,1.92,1.58,4.32,3.65,6.78,6.68l.03.03c2.27,2.48,9.68,11.58,7.81,23.55-.36,2.32-1.59,9.53-7.73,14.5-.57.46-1.16.89-1.77,1.27-4.06,3.04-9.11,4.84-14.56,4.84-13.44,0-24.34-10.9-24.34-24.34,0-.59.02-1.17.07-1.75v-22.81s-.04.06-.07.09v-33.76c.07.07.15.14.22.2ZM263.05,263.07v13.07h.01v128.14h-18.76v-141.19H103.12v-18.76h141.18v-13.07h-.02V103.12h18.76v141.18h.01s141.18.01,141.18.01v18.76h-141.18ZM424.65,315.95s-.05.06-.08.09c-2.44,2.94-5.56,5.29-9.13,6.82-.03.01-.06.02-.1.04-2.5.96-4.65,1.32-5.74,1.49-4.59.72-8.76.07-12.29-1.13-.66-.25-1.31-.52-1.94-.83-.03-.01-.06-.03-.1-.05-1.8-.8-4.4-2.12-7.23-4.14-.01-.01-.03-.02-.04-.03-4.76-3.4-7.48-6.86-9.46-9.26t-.02-.02c-.45-.47-.9-.92-1.35-1.39-.07-.06-.13-.13-.19-.19l-.57-.57c-1.32-1.32-3.93-4-9.33-9.73h0c-.57-.61-1.17-1.25-1.79-1.92-.64-.67-1.3-1.38-2-2.12-2.31-2.47-5.01-5.37-8.05-8.64-.42-.45-.84-.91-1.28-1.38-.26-.29-.52-.57-.79-.86-1.75-1.89-3.59-3.89-5.53-5.99h33.76s-.06.05-.09.07h22.81c.58-.05,1.16-.07,1.75-.07,13.44,0,24.34,10.9,24.34,24.34,0,5.87-2.08,11.27-5.56,15.47ZM405.87,231.39c-.59,0-1.17-.02-1.75-.07h-22.81s.06.04.09.07h-33.76c.07-.07.14-.15.2-.22h-.07c2.05-2.25,4.12-4.5,6.19-6.78,8.44-9.15,16.9-18.08,25.36-26.76.01,0,.01-.01.02-.02,1.58-1.92,3.65-4.32,6.68-6.78l.03-.03c2.48-2.27,11.58-9.68,23.55-7.81,2.32.36,9.53,1.59,14.5,7.73.46.57.89,1.16,1.27,1.77,3.04,4.06,4.84,9.11,4.84,14.56,0,13.44-10.9,24.34-24.34,24.34Z"/>
  </g>
</svg>