<?xml version="1.0" encoding="UTF-8"?>
<svg id="Layer_2" data-name="Layer 2" xmlns="http://www.w3.org/2000/svg" viewBox="0 0 2665.68 1934.06">
  <defs>
    <style>
      .cls-1 {
        fill: #f37321;
      }
    </style>
  </defs>
  <g id="Layer_1-2" data-name="Layer 1">
    <g>
      <path class="cls-1" d="M680.8,1883.77v-777.14c0-27.74-22.49-50.23-50.23-50.23H50.28c-36.31,0-60.62-37.33-45.94-70.54L426.98,29.92c8.04-18.19,26.05-29.92,45.94-29.92h483.21c36.31,0,60.62,37.33,45.94,70.54l-246.02,556.46c-14.68,33.21,9.63,70.54,45.94,70.54h530.85l-556.19,1207.24c-22.54,48.93-95.85,32.86-95.85-21.02Z"/>
      <path class="cls-1" d="M1984.88,1883.77v-777.14c0-27.74,22.49-50.23,50.23-50.23h580.29c36.31,0,60.62-37.33,45.94-70.54L2238.7,29.92c-8.04-18.19-26.05-29.92-45.94-29.92h-483.21c-36.31,0-60.62,37.33-45.94,70.54l246.02,556.46c14.68,33.21-9.63,70.54-45.94,70.54h-530.85l556.19,1207.24c22.54,48.93,95.85,32.86,95.85-21.02Z"/>
    </g>
  </g>
</svg>